HIERARCHY
ROOT Hips
{
  OFFSET 5.84602e-005 68.8428 3.50346
  CHANNELS 6 Xposition Yposition Zposition Zrotation Xrotation Yrotation
  JOINT Spine
  {
    OFFSET 0 8.597 -4.6522
    CHANNELS 3 Zrotation Xrotation Yrotation
    JOINT Spine1
    {
      OFFSET 0 7.8454 0.4098
      CHANNELS 3 Zrotation Xrotation Yrotation
      JOINT Spine2
      {
        OFFSET 0 9.7078 -2.1609
        CHANNELS 3 Zrotation Xrotation Yrotation
        JOINT Neck
        {
          OFFSET 0 21.8761 -0.4549
          CHANNELS 3 Zrotation Xrotation Yrotation
          JOINT Head
          {
            OFFSET 0 12.3537 3.3602
            CHANNELS 3 Zrotation Xrotation Yrotation
            End Site
            {
              OFFSET 0.0001 18.9506 0.5657
            }
          }
        }
        JOINT LeftShoulder
        {
          OFFSET 2.2086 21.1115 7.2329
          CHANNELS 3 Zrotation Xrotation Yrotation
          JOINT LeftArm
          {
            OFFSET 13.1193 3.0282 -4.8998
            CHANNELS 3 Zrotation Xrotation Yrotation
            JOINT LeftForeArm
            {
              OFFSET 27.4081 -0.0973053 -0.2375
              CHANNELS 3 Zrotation Xrotation Yrotation
              JOINT LeftHand
              {
                OFFSET 22.8641 0.0662994 -0.1369
                CHANNELS 3 Zrotation Xrotation Yrotation
                JOINT LeftHandIndex1
                {
                  OFFSET 8.8614 0.775009 2.4612
                  CHANNELS 3 Zrotation Xrotation Yrotation
                  JOINT LeftHandIndex2
                  {
                    OFFSET 3.3146 -0.808304 0.5841
                    CHANNELS 3 Zrotation Xrotation Yrotation
                    JOINT LeftHandIndex3
                    {
                      OFFSET 2.2628 -0.552002 0.3989
                      CHANNELS 3 Zrotation Xrotation Yrotation
                      End Site
                      {
                        OFFSET 1.6102 -0.4807 0.2612
                      }
                    }
                  }
                }
                JOINT LeftHandMiddle1
                {
                  OFFSET 8.9937 0.895004 0.2143
                  CHANNELS 3 Zrotation Xrotation Yrotation
                  JOINT LeftHandMiddle2
                  {
                    OFFSET 4.0984 0.0113983 -0.0242
                    CHANNELS 3 Zrotation Xrotation Yrotation
                    JOINT LeftHandMiddle3
                    {
                      OFFSET 2.2716 0.00689697 -0.0138001
                      CHANNELS 3 Zrotation Xrotation Yrotation
                      End Site
                      {
                        OFFSET 2.0404 -0.1441 0.0027
                      }
                    }
                  }
                }
                JOINT LeftHandRing1
                {
                  OFFSET 8.5234 0.597198 -2.0164
                  CHANNELS 3 Zrotation Xrotation Yrotation
                  JOINT LeftHandRing2
                  {
                    OFFSET 3.7188 -0.188293 -0.2328
                    CHANNELS 3 Zrotation Xrotation Yrotation
                    JOINT LeftHandRing3
                    {
                      OFFSET 2.1191 -0.106598 -0.1332
                      CHANNELS 3 Zrotation Xrotation Yrotation
                      End Site
                      {
                        OFFSET 1.8737 -0.2304 -0.0886
                      }
                    }
                  }
                }
                JOINT LeftHandPinky1
                {
                  OFFSET 7.9094 -0.601089 -3.4825
                  CHANNELS 3 Zrotation Xrotation Yrotation
                  JOINT LeftHandPinky2
                  {
                    OFFSET 2.2874 -0.477005 -0.6314
                    CHANNELS 3 Zrotation Xrotation Yrotation
                    JOINT LeftHandPinky3
                    {
                      OFFSET 1.6774 -0.349396 -0.4633
                      CHANNELS 3 Zrotation Xrotation Yrotation
                      End Site
                      {
                        OFFSET 1.4888 -0.4091 -0.3416
                      }
                    }
                  }
                }
                JOINT LeftHandThumb1
                {
                  OFFSET 1.833 -1.3875 1.3896
                  CHANNELS 3 Zrotation Xrotation Yrotation
                  JOINT LeftHandThumb2
                  {
                    OFFSET 3.4129 -1.121 2.5732
                    CHANNELS 3 Zrotation Xrotation Yrotation
                    JOINT LeftHandThumb3
                    {
                      OFFSET 2.2474 -0.804199 1.6192
                      CHANNELS 3 Zrotation Xrotation Yrotation
                      End Site
                      {
                        OFFSET 1.6527 -0.5689 1.1317
                      }
                    }
                  }
                }
              }
            }
          }
        }
        JOINT RightShoulder
        {
          OFFSET -2.2086 21.1115 7.2329
          CHANNELS 3 Zrotation Xrotation Yrotation
          JOINT RightArm
          {
            OFFSET -13.1216 3.0287 -4.9007
            CHANNELS 3 Zrotation Xrotation Yrotation
            JOINT RightForeArm
            {
              OFFSET -27.4081 -0.0973053 -0.2375
              CHANNELS 3 Zrotation Xrotation Yrotation
              JOINT RightHand
              {
                OFFSET -22.8641 0.0664063 -0.1369
                CHANNELS 3 Zrotation Xrotation Yrotation
                JOINT RightHandIndex1
                {
                  OFFSET -8.8614 0.774994 2.4612
                  CHANNELS 3 Zrotation Xrotation Yrotation
                  JOINT RightHandIndex2
                  {
                    OFFSET -3.3146 -0.808304 0.5841
                    CHANNELS 3 Zrotation Xrotation Yrotation
                    JOINT RightHandIndex3
                    {
                      OFFSET -2.2628 -0.552002 0.3989
                      CHANNELS 3 Zrotation Xrotation Yrotation
                      End Site
                      {
                        OFFSET -1.6102 -0.4807 0.2612
                      }
                    }
                  }
                }
                JOINT RightHandMiddle1
                {
                  OFFSET -8.9937 0.894989 0.2143
                  CHANNELS 3 Zrotation Xrotation Yrotation
                  JOINT RightHandMiddle2
                  {
                    OFFSET -4.0984 0.0113983 -0.0242
                    CHANNELS 3 Zrotation Xrotation Yrotation
                    JOINT RightHandMiddle3
                    {
                      OFFSET -2.2716 0.00691223 -0.0138001
                      CHANNELS 3 Zrotation Xrotation Yrotation
                      End Site
                      {
                        OFFSET -2.0404 -0.1441 0.0027
                      }
                    }
                  }
                }
                JOINT RightHandRing1
                {
                  OFFSET -8.5234 0.597198 -2.0164
                  CHANNELS 3 Zrotation Xrotation Yrotation
                  JOINT RightHandRing2
                  {
                    OFFSET -3.7188 -0.188309 -0.2328
                    CHANNELS 3 Zrotation Xrotation Yrotation
                    JOINT RightHandRing3
                    {
                      OFFSET -2.1191 -0.106598 -0.1332
                      CHANNELS 3 Zrotation Xrotation Yrotation
                      End Site
                      {
                        OFFSET -1.8737 -0.2304 -0.0886
                      }
                    }
                  }
                }
                JOINT RightHandPinky1
                {
                  OFFSET -7.9094 -0.601105 -3.4825
                  CHANNELS 3 Zrotation Xrotation Yrotation
                  JOINT RightHandPinky2
                  {
                    OFFSET -2.2874 -0.477005 -0.6314
                    CHANNELS 3 Zrotation Xrotation Yrotation
                    JOINT RightHandPinky3
                    {
                      OFFSET -1.6774 -0.349396 -0.4633
                      CHANNELS 3 Zrotation Xrotation Yrotation
                      End Site
                      {
                        OFFSET -1.4888 -0.4091 -0.3416
                      }
                    }
                  }
                }
                JOINT RightHandThumb1
                {
                  OFFSET -1.833 -1.38751 1.3896
                  CHANNELS 3 Zrotation Xrotation Yrotation
                  JOINT RightHandThumb2
                  {
                    OFFSET -3.41299 -1.12099 2.5732
                    CHANNELS 3 Zrotation Xrotation Yrotation
                    JOINT RightHandThumb3
                    {
                      OFFSET -2.24741 -0.804108 1.6192
                      CHANNELS 3 Zrotation Xrotation Yrotation
                      End Site
                      {
                        OFFSET -1.6527 -0.5689 1.1317
                      }
                    }
                  }
                }
              }
            }
          }
        }
      }
    }
  }
  JOINT RightUpLeg
  {
    OFFSET -9.1966 3.8861 -0.7581
    CHANNELS 3 Zrotation Xrotation Yrotation
    JOINT RightLeg
    {
      OFFSET -0.7359 -41.0265 0
      CHANNELS 3 Zrotation Xrotation Yrotation
      JOINT RightFoot
      {
        OFFSET 0 -40.2855 0
        CHANNELS 3 Zrotation Xrotation Yrotation
        JOINT RightToeBase
        {
          OFFSET 0 -5.6122 11.7359
          CHANNELS 3 Zrotation Xrotation Yrotation
          End Site
          {
            OFFSET 0 0 7.8731
          }
        }
      }
    }
  }
  JOINT LeftUpLeg
  {
    OFFSET 9.1965 3.8864 -0.7581
    CHANNELS 3 Zrotation Xrotation Yrotation
    JOINT LeftLeg
    {
      OFFSET 0.7359 -41.0268 0
      CHANNELS 3 Zrotation Xrotation Yrotation
      JOINT LeftFoot
      {
        OFFSET 0 -40.2855 0
        CHANNELS 3 Zrotation Xrotation Yrotation
        JOINT LeftToeBase
        {
          OFFSET 0 -5.6122 11.7359
          CHANNELS 3 Zrotation Xrotation Yrotation
          End Site
          {
            OFFSET 0 0 7.8731
          }
        }
      }
    }
  }
}
MOTION
Frames:	4
Frame Time:	0.0333333
5.84602e-005 68.8428 3.50346 0 0 -0 0 0 -0 0 0 -0 0 0 -0 0 0 -0 0 0 -0 0 0 -0 0 0 -0 0 0 -0 0 0 -0 0 0 -0 0 0 -0 0 0 -0 0 0 -0 -0.0146107 -8.87603e-005 -2.63497e-007 2.99804e-018 -2.42657e-020 -1.42182e-022 0 0 -0 -0.0187562 -0.001176 5.858e-005 5.06224e-018 3.88251e-019 1.21329e-020 0 0 -0 -0.012269 -0.00324817 0.000675346 -1.74678e-018 3.88251e-019 -0 0 0 -0 0 0 -0 0 0 -0 0 0 -0 0 0 -0 0 0 -0 0 0 -0 0 0 -0 0 0 -0 0 0 -0 0 0 -0 0.0149955 -9.10982e-005 2.64101e-007 -9.69331e-018 1.21329e-020 -4.7394e-023 0 0 -0 0.0189956 -0.00119102 -5.96516e-005 -5.41541e-019 0 2.42657e-020 0 0 -0 0.0122698 -0.00324857 -0.000673756 -2.00796e-019 0 -1.94126e-019 0 0 -0 0 0 -0 0 0 -0 3.39842 1.33031 -0.0637918 -5.65207e-008 0.834868 -0.000436188 -3.39935 -2.16518 -0.0642563 -8.89002e-024 -1.18485e-023 -1.48106e-024 -3.39844 1.35642 0.0640283 -3.18788e-007 0.782166 -0.000588827 3.39931 -2.13858 0.0634662 1.1399e-023 0 -0 
39.739 39.6498 18.5649 179.997 58.9865 -1.00007e-011 -0.0261178 8.04518 -0.0848084 -0.0406799 16.0904 -0.168402 -0.0406798 16.0904 -0.168402 -2.6343e-007 13.997 1.22974e-007 4.26294e-008 0.120645 -1.00696e-007 -17.4702 -1.22933 -1.9139 -45.8298 55.0433 3.22695 12.438 34.0288 -18.6324 1.68688 -5.3049 -1.33814 -3.97569e-016 7.95139e-016 -0 -1.60251e-008 1.06359e-007 1.31473e-006 -7.95139e-016 1.98785e-016 -3.18055e-015 -3.97569e-016 7.95139e-016 -0 -0.014627 -8.84015e-005 6.40375e-006 -7.95139e-016 -1.49089e-015 -0 -3.97569e-016 7.95139e-016 -0 -0.0187564 -0.00117591 5.4265e-005 -4.96564e-032 -8.94531e-016 -3.18055e-015 -3.97569e-016 7.95139e-016 -0 -0.0122396 -0.00323922 0.000670991 -3.97569e-016 1.2921e-015 9.54166e-015 -3.97569e-016 7.95139e-016 -0 -1.60251e-008 1.06359e-007 1.31473e-006 -7.95139e-016 1.98785e-016 -3.18055e-015 11.0049 -1.90557 1.24652 54.3892 54.9137 -3.08764 -13.3653 33.7325 23.4114 -1.19311 -3.20417 -4.7842 3.97569e-016 -5.96354e-016 -0 2.39291e-007 -3.7397e-009 5.44663e-006 1.19271e-015 -9.93923e-017 -0 3.97569e-016 -5.96354e-016 -0 0.014986 -9.04589e-005 7.38555e-007 1.59327e-008 1.04343e-007 -1.31582e-006 3.97569e-016 -5.96354e-016 -0 0.0190123 -0.00119205 -5.83608e-005 1.62564e-008 1.04205e-007 -1.31583e-006 3.97569e-016 -5.96354e-016 -0 0.0122986 -0.00325588 -0.000668834 3.97569e-016 6.95746e-016 3.18055e-015 3.97569e-016 -5.96354e-016 -0 2.39291e-007 -3.7397e-009 5.44663e-006 1.19271e-015 -9.93923e-017 -0 -54.3596 -71.6572 -84.25 -1.56473 34.6973 41.8265 -21.3327 -2.30271 -5.48728 1.67346e-006 -4.68918e-007 1.16647e-008 54.3099 -71.6827 84.194 1.56895 34.687 -41.8418 21.3148 -2.28857 5.47702 -1.65672e-006 -1.45147e-007 -7.08562e-007 
39.7398 39.6492 18.5634 179.997 58.9947 3.2456e-011 -0.0265176 8.16664 -0.084656 -0.0413386 16.3333 -0.168052 -0.0413388 16.3333 -0.168052 3.09759e-007 13.8803 2.92462e-007 1.31514e-007 0.120348 -6.35957e-008 -16.8391 -1.56306 -2.17891 -46.2887 55.0363 3.19997 12.438 34.0288 -18.6324 1.82398 -5.58385 -1.15934 -3.97569e-016 -1.19271e-015 -3.18055e-015 -3.97569e-016 -9.93923e-016 -3.18055e-015 -1.65521e-031 -1.49089e-015 -6.36111e-015 -3.97569e-016 -1.19271e-015 -3.18055e-015 -0.014623 -8.86332e-005 1.45915e-005 5.51738e-033 9.93923e-017 -3.18055e-015 -3.97569e-016 -1.19271e-015 -3.18055e-015 -0.0187274 -0.00117378 6.89508e-005 -3.97569e-016 1.09332e-015 3.18055e-015 -3.97569e-016 -1.19271e-015 -3.18055e-015 -0.0122917 -0.0032535 0.000679869 0 1.98785e-016 -0 -3.97569e-016 -1.19271e-015 -3.18055e-015 -3.97569e-016 -9.93923e-016 -3.18055e-015 -1.65521e-031 -1.49089e-015 -6.36111e-015 10.4447 -2.30778 1.49503 54.7976 54.9119 -3.07744 -13.3653 33.7325 23.4114 -1.30742 -3.47701 -4.94866 1.47642e-008 -1.37414e-007 2.76938e-006 -1.60129e-008 -1.02253e-007 1.338e-006 -3.97569e-016 1.2921e-015 -3.18055e-015 1.47642e-008 -1.37414e-007 2.76938e-006 0.0149946 -9.0822e-005 -6.78356e-007 1.19271e-015 1.39149e-015 3.18055e-015 1.47642e-008 -1.37414e-007 2.76938e-006 0.0189934 -0.00119096 -6.07174e-005 1.19271e-015 -2.98177e-016 -3.18055e-015 1.47642e-008 -1.37414e-007 2.76938e-006 0.0122539 -0.00324418 -0.000675564 -7.95139e-016 -1.98785e-016 3.18055e-015 1.47642e-008 -1.37414e-007 2.76938e-006 -1.60129e-008 -1.02253e-007 1.338e-006 -3.97569e-016 1.2921e-015 -3.18055e-015 -53.9755 -71.8998 -83.8935 -1.56501 34.7054 41.8256 -21.624 -2.28496 -5.626 2.94776e-006 -1.16218e-006 -7.69193e-008 54.0954 -71.8333 83.9952 1.56908 34.6912 -41.8417 21.4979 -2.28458 5.56682 -3.67752e-015 -1.59028e-015 -1.59028e-015 
39.7405 39.6493 18.5627 179.997 58.9947 3.2456e-011 -0.0269184 8.28838 -0.0845007 -0.0420012 16.5768 -0.167696 -0.0420013 16.5768 -0.167696 1.54187e-006 13.7635 -8.40321e-007 2.51282e-008 0.120051 6.3712e-008 -16.2089 -1.8999 -2.44045 -46.7477 55.0294 3.1729 12.438 34.0288 -18.6324 1.96204 -5.86241 -0.97975 9.14409e-015 2.42517e-014 1.27222e-014 9.54166e-015 2.38542e-014 1.27222e-014 9.14409e-015 2.36554e-014 1.27222e-014 9.14409e-015 2.42517e-014 1.27222e-014 -0.014627 -8.88604e-005 -6.43521e-006 3.18055e-015 -3.97569e-016 1.59028e-014 9.14409e-015 2.42517e-014 1.27222e-014 -0.0187498 -0.0011751 6.25834e-005 -1.76042e-008 1.02343e-007 1.36019e-006 9.14409e-015 2.42517e-014 1.27222e-014 -0.0122775 -0.00324902 0.000682733 1.19271e-015 -2.18663e-015 -3.18055e-015 9.14409e-015 2.42517e-014 1.27222e-014 9.54166e-015 2.38542e-014 1.27222e-014 9.14409e-015 2.36554e-014 1.27222e-014 9.88578 -2.71263 1.73982 55.2061 54.91 -3.06725 -13.3653 33.7325 23.4114 -1.42255 -3.74956 -5.1137 7.95139e-016 -2.3059e-014 3.18055e-015 -3.68248e-007 -1.71374e-007 -5.47077e-006 1.19271e-015 1.39149e-015 -0 7.95139e-016 -2.3059e-014 3.18055e-015 0.0149939 -9.09814e-005 -4.48838e-006 -3.97569e-016 -1.2921e-015 6.36111e-015 7.95139e-016 -2.3059e-014 3.18055e-015 0.0189745 -0.0011901 -5.71993e-005 1.54487e-031 -1.39149e-015 6.36111e-015 7.95139e-016 -2.3059e-014 3.18055e-015 0.0122202 -0.00323508 -0.000675319 3.97569e-016 -7.95139e-016 6.36111e-015 7.95139e-016 -2.3059e-014 3.18055e-015 -3.68248e-007 -1.71374e-007 -5.47077e-006 1.19271e-015 1.39149e-015 -0 -53.5818 -72.1418 -83.5274 -1.56526 34.7137 41.8246 -21.9153 -2.26658 -5.76464 1.68266e-006 -4.35931e-007 -2.02326e-007 53.8777 -71.9837 83.7932 1.56921 34.6955 -41.8415 21.6811 -2.28037 5.65661 -4.40047e-006 -4.25432e-007 -1.67965e-007 
